# This file uses centimeters as units for non-parametric coordinates.

mtllib Ladrillo_01.mtl
g default
v 4.871086 0.000000 12.397555
v 4.871086 1.800002 12.397555
v 4.871086 0.000000 10.597555
v 4.871086 1.800002 10.597555
v 3.191496 0.000000 12.397555
v 3.191496 1.800002 12.397555
v 3.191496 0.000000 10.597555
v 3.191496 1.800002 10.597555
v 4.736496 1.544119 12.397555
v 4.736496 1.544751 10.597555
v 3.446494 1.544018 12.397555
v 3.446494 1.543378 10.597555
v 3.446494 0.255290 12.397555
v 3.446494 0.256241 10.597555
v 4.736496 0.253771 12.397555
v 4.736496 0.255548 10.597555
v 3.191496 0.253464 12.397555
v 3.191496 0.256241 10.597555
v 3.191496 1.543411 12.397555
v 3.191496 1.543378 10.597555
v 3.121423 0.000000 12.397555
v 3.124268 0.253464 12.397555
v 3.121423 0.256241 10.597555
v 3.121423 0.000000 10.597555
v 3.121423 1.543411 12.397555
v 3.121423 1.543411 10.597555
v 3.121423 1.800002 12.397555
v 3.121423 1.800002 10.597555
v 6.620747 0.000000 12.397555
v 6.620747 0.255154 12.397555
v 6.620747 0.255141 10.597555
v 6.620747 0.000000 10.597555
v 6.550676 1.800002 10.597555
v 6.550676 1.800002 12.397555
v 6.550676 0.000000 10.597555
v 6.550676 0.000000 12.397555
v 5.005677 1.543837 12.397555
v 5.005677 0.253771 12.397555
v 6.295678 1.545997 12.397555
v 6.550676 1.545997 12.397555
v 6.295678 0.255085 12.397555
v 6.550676 0.255141 10.597555
v 6.295678 0.255141 10.597555
v 5.005677 1.544751 10.597555
v 6.295678 1.549934 10.597555
v 5.005677 0.255548 10.597555
v 6.550676 0.255154 12.397555
v 6.550676 1.554237 10.597555
v 6.620747 1.554201 10.597555
v 6.620747 1.545472 12.397555
v 6.620747 1.800002 12.397555
v 6.620747 1.800002 10.597555
v 4.871086 1.543978 12.397555
v 4.871086 0.253772 12.397555
v 4.871086 0.255548 10.597555
v 4.871086 1.544751 10.597555
v 3.446711 1.800002 10.597555
v 3.459990 1.800002 12.397555
v 5.004626 1.800002 12.397555
v 5.004626 1.800002 10.597555
v 6.287582 1.800002 10.597555
v 6.278907 1.800002 12.397555
v 4.727811 1.800001 10.597555
v 4.738289 1.800002 12.397555
v 6.296484 0.000000 12.397555
v 6.293870 0.000000 10.597555
v 5.006486 0.000000 10.597555
v 5.002713 0.000000 12.397555
v 4.737792 0.000000 10.597555
v 4.738060 0.000000 12.397555
v 3.447080 0.000000 10.597555
v 3.432012 0.000000 12.397555
vt 0.001992 0.221861
vt 0.001992 0.203841
vt 0.228383 0.205159
vt 0.228383 0.221861
vt 0.001992 0.042714
vt 0.228383 0.044384
vt 0.228383 0.238657
vt 0.001992 0.238657
vt 0.001992 0.010615
vt 0.228383 0.010615
vt 0.228383 0.398927
vt 0.001992 0.400018
vt 0.001992 0.001802
vt 0.228383 0.001802
vt 0.228383 0.433108
vt 0.001992 0.433108
vt 0.228383 0.441921
vt 0.001992 0.441921
vt 0.236061 0.433108
vt 0.236061 0.400962
vt 0.462452 0.402857
vt 0.462452 0.433108
vt 0.236061 0.238626
vt 0.462452 0.238592
vt 0.462452 0.441921
vt 0.236061 0.441921
vt 0.236061 0.221861
vt 0.462452 0.221861
vt 0.236061 0.204832
vt 0.462452 0.205306
vt 0.236061 0.042914
vt 0.462452 0.042585
vt 0.236061 0.010615
vt 0.462452 0.010615
vt 0.236061 0.001802
vt 0.462452 0.001802
vt 0.998008 0.445912
vt 0.998008 0.672303
vt 0.835761 0.672303
vt 0.835761 0.445912
vt 0.829626 0.445912
vt 0.829626 0.672303
vt 0.667379 0.672303
vt 0.667379 0.445912
vt 0.108920 0.672303
vt 0.108920 0.445912
vt 0.117734 0.445912
vt 0.117376 0.672303
vt 0.102785 0.445912
vt 0.102785 0.672303
vt 0.093972 0.672303
vt 0.093972 0.445912
vt 0.001992 0.676295
vt 0.164239 0.676295
vt 0.164239 0.902685
vt 0.001992 0.902685
vt 0.171746 0.676295
vt 0.333993 0.676295
vt 0.333993 0.902685
vt 0.171746 0.902685
vt 0.897773 0.902685
vt 0.888960 0.902685
vt 0.888960 0.676295
vt 0.897773 0.676295
vt 0.904552 0.676295
vt 0.913365 0.676295
vt 0.913365 0.902685
vt 0.904552 0.902685
vt 0.502131 0.042687
vt 0.469936 0.044384
vt 0.469936 0.010615
vt 0.502208 0.010615
vt 0.502119 0.204934
vt 0.469936 0.205159
vt 0.469936 0.001802
vt 0.502208 0.001802
vt 0.664448 0.010615
vt 0.664218 0.042687
vt 0.502136 0.221861
vt 0.469936 0.221861
vt 0.696326 0.010615
vt 0.696326 0.040865
vt 0.664409 0.204934
vt 0.664409 0.221861
vt 0.502154 0.238789
vt 0.469936 0.238657
vt 0.696326 0.205130
vt 0.664448 0.002160
vt 0.696326 0.001802
vt 0.696326 0.221861
vt 0.664409 0.238789
vt 0.501882 0.401036
vt 0.469936 0.398927
vt 0.696326 0.238417
vt 0.501882 0.433108
vt 0.469936 0.433108
vt 0.664244 0.401036
vt 0.696326 0.401138
vt 0.664235 0.433108
vt 0.501948 0.441921
vt 0.469936 0.441921
vt 0.696326 0.433108
vt 0.696326 0.441921
vt 0.664235 0.441921
vt 0.703810 0.433108
vt 0.703810 0.401009
vt 0.736086 0.401036
vt 0.736086 0.433108
vt 0.703810 0.239881
vt 0.735913 0.238789
vt 0.897973 0.401036
vt 0.897973 0.433108
vt 0.736082 0.441921
vt 0.703810 0.441921
vt 0.703810 0.221861
vt 0.735913 0.221861
vt 0.930201 0.400962
vt 0.930201 0.433108
vt 0.703810 0.205066
vt 0.735913 0.204933
vt 0.898060 0.221861
vt 0.898060 0.238789
vt 0.930201 0.238626
vt 0.930201 0.441921
vt 0.897973 0.441921
vt 0.703810 0.043705
vt 0.735262 0.042686
vt 0.898060 0.204933
vt 0.930201 0.221861
vt 0.703810 0.010615
vt 0.734720 0.010615
vt 0.930201 0.204832
vt 0.703810 0.001802
vt 0.734725 0.001802
vt 0.898111 0.042686
vt 0.898111 0.010615
vt 0.930201 0.042914
vt 0.930201 0.010615
vt 0.898111 0.001802
vt 0.930201 0.001802
vt 0.969912 0.228193
vt 0.938033 0.228193
vt 0.937684 0.001802
vt 0.969912 0.001802
vt 0.498953 0.672303
vt 0.498874 0.445912
vt 0.661020 0.445912
vt 0.661244 0.672303
vt 0.492389 0.445912
vt 0.492738 0.672303
vt 0.330498 0.672303
vt 0.330502 0.445912
vt 0.162357 0.672303
vt 0.162276 0.445912
vt 0.324363 0.445912
vt 0.324243 0.672303
vt 0.156141 0.445912
vt 0.156141 0.672303
vt 0.123869 0.672303
vt 0.123869 0.445912
vt 0.087836 0.445912
vt 0.087836 0.672303
vt 0.055747 0.672303
vt 0.055745 0.445912
vt 0.503451 0.902685
vt 0.341305 0.902685
vt 0.341420 0.676295
vt 0.503675 0.676295
vt 0.674254 0.902685
vt 0.510864 0.902685
vt 0.511900 0.676295
vt 0.674253 0.676295
vt 0.680422 0.676295
vt 0.843272 0.676295
vt 0.843279 0.902685
vt 0.680918 0.902685
vt 0.880896 0.902685
vt 0.849981 0.902685
vt 0.849981 0.676295
vt 0.881994 0.676295
vn -1.000000 0.000000 0.000000
vn -1.000000 0.000000 0.000000
vn -1.000000 0.000000 0.000000
vn -1.000000 0.000000 0.000000
vn -0.000000 1.000000 0.000000
vn 0.000000 1.000000 -0.000000
vn -0.000000 1.000000 -0.000000
vn -0.000000 1.000000 0.000000
vn 0.000000 -1.000000 0.000000
vn 0.000000 -1.000000 0.000000
vn 0.000000 -1.000000 0.000000
vn 0.000000 -1.000000 0.000000
vn 0.000000 0.000000 1.000000
vn 0.000000 0.000000 1.000000
vn 0.000000 0.000000 1.000000
vn 0.000000 0.000000 1.000000
vn 0.000000 -0.000000 -1.000000
vn 0.000000 -0.000000 -1.000000
vn 0.000000 -0.000000 -1.000000
vn 0.000000 -0.000000 -1.000000
vn 0.000000 -1.000000 0.000000
vn 0.000000 -1.000000 0.000000
vn 0.000000 -1.000000 0.000000
vn 0.000000 -1.000000 0.000000
vn -0.000000 1.000000 0.000000
vn -0.000000 1.000000 0.000000
vn -0.000000 1.000000 0.000000
vn -0.000000 1.000000 0.000000
vn -1.000000 0.000000 0.000000
vn -1.000000 0.000000 0.000000
vn -1.000000 0.000000 0.000000
vn -1.000000 0.000000 0.000000
vn -1.000000 0.000000 0.000000
vn -1.000000 0.000000 0.000000
vn -1.000000 0.000000 0.000000
vn -1.000000 0.000000 0.000000
vn 0.000000 -0.000000 -1.000000
vn 0.000000 -0.000000 -1.000000
vn 0.000000 -0.000000 -1.000000
vn 0.000000 -0.000000 -1.000000
vn 0.000000 0.000000 1.000000
vn 0.000000 0.000000 1.000000
vn 0.000000 0.000000 1.000000
vn 0.000000 0.000000 1.000000
vn 1.000000 0.000000 0.000000
vn 1.000000 0.000000 0.000000
vn 1.000000 0.000000 0.000000
vn 1.000000 0.000000 0.000000
vn -1.000000 0.000000 0.000000
vn -1.000000 0.000000 0.000000
vn -1.000000 0.000000 0.000000
vn -1.000000 0.000000 0.000000
vn 0.000000 0.000000 1.000000
vn 0.000000 0.000000 1.000000
vn 0.000000 0.000000 1.000000
vn 0.000000 0.000000 1.000000
vn -0.000000 1.000000 0.000000
vn -0.000000 1.000000 0.000000
vn -0.000000 1.000000 0.000000
vn -0.000000 1.000000 0.000000
vn 0.000000 -0.000000 -1.000000
vn 0.000000 -0.000000 -1.000000
vn 0.000000 -0.000000 -1.000000
vn 0.000000 -0.000000 -1.000000
vn 0.000000 -1.000000 0.000000
vn 0.000000 -1.000000 0.000000
vn 0.000000 -1.000000 0.000000
vn 0.000000 -1.000000 0.000000
vn 0.000000 -1.000000 0.000000
vn 0.000000 -1.000000 0.000000
vn 0.000000 -1.000000 0.000000
vn 0.000000 -1.000000 0.000000
vn 0.000000 0.000000 1.000000
vn 0.000000 0.000000 1.000000
vn 0.000000 0.000000 1.000000
vn 0.000000 0.000000 1.000000
vn -0.000000 1.000000 0.000000
vn -0.000000 1.000000 0.000000
vn -0.000000 1.000000 0.000000
vn -0.000000 1.000000 0.000000
vn 0.000000 -0.000000 -1.000000
vn 0.000000 -0.000000 -1.000000
vn 0.000000 -0.000000 -1.000000
vn 0.000000 -0.000000 -1.000000
vn 1.000000 0.000000 0.000000
vn 1.000000 0.000000 0.000000
vn 1.000000 0.000000 0.000000
vn 1.000000 0.000000 0.000000
vn -0.000000 1.000000 0.000000
vn -0.000000 1.000000 0.000000
vn -0.000000 1.000000 0.000000
vn -0.000000 1.000000 0.000000
vn 0.000000 -1.000000 0.000000
vn 0.000000 -1.000000 0.000000
vn 0.000000 -1.000000 -0.000000
vn 0.000000 -1.000000 -0.000000
vn 0.000000 0.000000 1.000000
vn 0.000000 0.000000 1.000000
vn 0.000000 0.000000 1.000000
vn -0.000000 0.000000 1.000000
vn 0.000000 -0.000000 -1.000000
vn 0.000000 -0.000000 -1.000000
vn 0.000000 -0.000000 -1.000000
vn 0.000000 -0.000000 -1.000000
vn 0.000000 0.000000 -1.000000
vn 0.000000 -0.000000 -1.000000
vn -0.000000 0.000000 -1.000000
vn -0.000000 0.000000 -1.000000
vn 0.000000 -1.000000 0.000000
vn 0.000000 -1.000000 0.000000
vn 0.000000 -1.000000 0.000000
vn 0.000000 -1.000000 0.000000
vn -0.000000 1.000000 0.000000
vn -0.000000 1.000000 0.000000
vn -0.000000 1.000000 0.000000
vn -0.000000 1.000000 0.000000
vn 1.000000 0.000000 0.000000
vn 1.000000 0.000000 0.000000
vn 1.000000 0.000000 0.000000
vn 1.000000 0.000000 0.000000
vn 1.000000 0.000000 0.000000
vn 1.000000 0.000000 0.000000
vn 1.000000 0.000000 0.000000
vn 1.000000 0.000000 0.000000
vn -0.000000 0.000000 -1.000000
vn -0.000000 0.000000 -1.000000
vn -0.000000 0.000000 -1.000000
vn -0.000000 -0.000000 -1.000000
vn 0.000000 0.000000 1.000000
vn 0.000000 0.000000 1.000000
vn 0.000000 0.000000 1.000000
vn 0.000000 0.000000 1.000000
vn -1.000000 0.000000 0.000000
vn -0.999468 0.032622 0.000000
vn -0.999468 0.032622 0.000000
vn -1.000000 0.000000 0.000000
vn 1.000000 0.000000 0.000000
vn 1.000000 0.000000 0.000000
vn 1.000000 0.000000 0.000000
vn 1.000000 0.000000 0.000000
vn 0.000000 0.000000 1.000000
vn 0.000000 0.000000 1.000000
vn 0.000000 0.000000 1.000000
vn 0.000000 0.000000 1.000000
vn -0.000000 1.000000 0.000000
vn -0.000000 1.000000 0.000000
vn -0.000000 1.000000 0.000000
vn -0.000000 1.000000 0.000000
vn -0.000000 -0.000000 -1.000000
vn -0.000000 -0.000000 -1.000000
vn -0.000000 -0.000000 -1.000000
vn -0.000000 -0.000000 -1.000000
vn 0.000000 -1.000000 0.000000
vn 0.000000 -1.000000 0.000000
vn 0.000000 -1.000000 0.000000
vn 0.000000 -1.000000 0.000000
vn 0.000000 -1.000000 0.000000
vn 0.000000 -1.000000 0.000000
vn 0.000000 -1.000000 0.000000
vn 0.000000 -1.000000 0.000000
vn 0.000000 0.000000 1.000000
vn 0.000000 0.000000 1.000000
vn 0.000000 0.000000 1.000000
vn -0.000000 0.000000 1.000000
vn -0.000000 1.000000 0.000000
vn -0.000000 1.000000 0.000000
vn -0.000000 1.000000 0.000000
vn -0.000000 1.000000 0.000000
vn -0.000000 0.000000 -1.000000
vn 0.000000 -0.000000 -1.000000
vn 0.000000 -0.000000 -1.000000
vn -0.000000 0.000000 -1.000000
vn 0.000000 0.000000 1.000000
vn 0.000000 0.000000 1.000000
vn -0.000000 0.000000 1.000000
vn -0.000000 0.000000 1.000000
vn -0.000000 0.000000 1.000000
vn -0.000000 0.000000 1.000000
vn 0.000000 0.000000 1.000000
vn -0.000000 0.000000 1.000000
vn 0.000000 0.000000 1.000000
vn -0.000000 0.000000 1.000000
vn 0.000000 0.000000 1.000000
vn 0.000000 0.000000 1.000000
vn 0.000000 0.000000 1.000000
vn 0.000000 0.000000 1.000000
vn 0.000000 -0.000000 -1.000000
vn 0.000000 -0.000000 -1.000000
vn 0.000000 -0.000000 -1.000000
vn 0.000000 -0.000000 -1.000000
vn 0.000000 -0.000000 -1.000000
vn 0.000000 -0.000000 -1.000000
vn 0.000000 -0.000000 -1.000000
vn 0.000000 -0.000000 -1.000000
vn 0.000000 -0.000000 -1.000000
vn 0.000000 -0.000000 -1.000000
vn 0.000000 1.000000 0.000000
vn 0.000000 1.000000 0.000000
vn -0.000000 1.000000 0.000000
vn -0.000000 1.000000 0.000000
vn -0.000000 1.000000 0.000000
vn -0.000000 1.000000 0.000000
vn -0.000000 1.000000 0.000000
vn -0.000000 1.000000 0.000000
vn 0.000000 0.000000 1.000000
vn 0.000000 0.000000 1.000000
vn -0.000000 0.000000 1.000000
vn 0.000000 0.000000 1.000000
vn -0.000000 0.000000 -1.000000
vn 0.000000 -0.000000 -1.000000
vn 0.000000 -0.000000 -1.000000
vn 0.000000 -0.000000 -1.000000
vn 0.000000 -1.000000 -0.000000
vn 0.000000 -1.000000 -0.000000
vn 0.000000 -1.000000 0.000000
vn 0.000000 -1.000000 0.000000
vn 0.000000 -1.000000 0.000000
vn 0.000000 -1.000000 0.000000
vn 0.000000 -1.000000 0.000000
vn 0.000000 -1.000000 0.000000
vn 0.000000 -0.000000 -1.000000
vn 0.000000 -0.000000 -1.000000
vn -0.000000 0.000000 -1.000000
vn 0.000000 -0.000000 -1.000000
vn -0.000000 -0.000000 -1.000000
vn -0.000000 -0.000000 -1.000000
vn 0.000000 0.000000 1.000000
vn -0.000000 0.000000 1.000000
vn 0.000000 0.000000 1.000000
vn 0.000000 0.000000 1.000000
vn -0.000000 0.000000 1.000000
vn 0.000000 0.000000 1.000000
s off
g cinderwideRim
usemtl CinderWideSG
f 21/141/1 22/142/2 23/143/3 24/144/4
s 1
f 4/1/5 63/2/6 64/3/7 2/4/8
s 2
f 7/19/9 71/20/10 72/21/11 5/22/12
s 3
f 11/69/13 58/70/14 6/71/15 19/72/16
s 4
f 8/105/17 57/106/18 12/107/19 20/108/20
s off
f 10/37/21 9/38/22 11/39/23 12/40/24
f 14/41/25 13/42/26 15/43/27 16/44/28
f 9/145/29 10/146/30 16/147/31 15/148/32
f 18/149/33 17/150/34 19/151/35 20/152/36
f 14/111/37 18/112/38 20/108/39 12/107/40
f 11/69/41 19/72/42 17/77/43 13/78/44
f 12/153/45 11/154/46 13/155/47 14/156/48
f 26/157/49 25/158/50 27/159/51 28/160/52
f 5/81/53 17/77/54 22/88/55 21/89/56
f 17/45/57 18/46/58 23/47/59 22/48/60
f 18/112/61 7/118/62 24/124/63 23/125/64
f 7/19/65 5/22/66 21/25/67 24/26/68
f 20/49/69 19/50/70 25/51/71 26/52/72
f 19/72/73 6/71/74 27/75/75 25/76/76
f 6/10/77 8/9/78 28/13/79 27/14/80
f 8/105/81 20/108/82 26/113/83 28/114/84
f 29/161/85 32/162/86 31/163/87 30/164/88
s 5
f 4/1/89 2/4/90 59/7/91 60/8/92
s 6
f 35/33/93 36/34/94 65/32/95 66/31/96
s 7
f 62/93/97 39/92/98 40/95/99 34/96/100
s 8
f 46/128/101 67/132/102 3/129/103 55/121/104
f 45/127/105 61/126/106 33/130/107 48/131/108
s off
f 44/53/109 45/54/110 39/55/111 37/56/112
f 43/57/113 46/58/114 38/59/115 41/60/116
f 46/165/117 44/166/118 37/167/119 38/168/120
f 42/169/121 48/170/122 40/171/123 47/172/124
f 43/135/125 45/127/126 48/131/127 42/136/128
f 39/92/129 41/97/130 47/99/131 40/95/132
f 45/173/133 43/174/134 41/175/135 39/176/136
f 49/177/137 52/178/138 51/179/139 50/180/140
f 36/102/141 29/103/142 30/104/143 47/99/144
f 47/61/145 30/62/146 31/63/147 42/64/148
f 42/136/149 31/139/150 32/140/151 35/138/152
f 35/33/153 32/35/154 29/36/155 36/34/156
f 48/65/157 49/66/158 50/67/159 40/68/160
f 40/95/161 50/100/162 51/101/163 34/96/164
f 34/15/165 51/17/166 52/18/167 33/16/168
f 33/130/169 52/133/170 49/134/171 48/131/172
s 3
f 9/73/173 15/83/174 54/84/175 53/79/176
s 7
f 53/79/177 54/84/178 38/91/179 37/85/180
s 3
f 5/81/181 72/82/182 13/78/183 17/77/184
s 7
f 68/94/185 38/91/179 54/84/178 1/90/186
s 4
f 14/111/187 71/117/188 7/118/189 18/112/190
s 8
f 56/116/191 44/120/192 46/128/101 55/121/104
s 4
f 10/110/193 56/116/194 55/121/195 16/122/196
s 1
f 58/6/197 57/5/198 8/9/199 6/10/200
s 5
f 61/12/201 62/11/202 34/15/203 33/16/204
f 60/8/92 59/7/91 62/11/202 61/12/201
s 3
f 11/69/13 9/73/173 64/74/205 58/70/14
s 1
f 64/3/7 63/2/6 57/5/198 58/6/197
s 3
f 64/74/205 9/73/173 53/79/176 2/80/206
s 7
f 2/80/207 53/79/177 37/85/180 59/86/208
f 59/86/208 37/85/180 39/92/98 62/93/97
s 8
f 4/115/209 60/119/210 44/120/192 56/116/191
f 44/120/192 60/119/210 61/126/106 45/127/105
s 4
f 10/110/193 63/109/211 4/115/212 56/116/194
f 12/107/19 57/106/18 63/109/211 10/110/193
s 6
f 67/29/213 68/30/214 1/28/215 3/27/216
f 66/31/96 65/32/95 68/30/214 67/29/213
s 2
f 70/24/217 69/23/218 3/27/219 1/28/220
f 72/21/11 71/20/10 69/23/218 70/24/217
s 4
f 16/122/196 69/123/221 71/117/188 14/111/187
f 16/122/196 55/121/195 3/129/222 69/123/221
s 8
f 43/135/223 66/137/224 67/132/102 46/128/101
f 43/135/223 42/136/225 35/138/226 66/137/224
s 7
f 41/97/227 65/98/228 36/102/229 47/99/230
f 41/97/227 38/91/179 68/94/185 65/98/228
s 3
f 15/83/174 70/87/231 1/90/232 54/84/175
f 13/78/183 72/82/182 70/87/231 15/83/174
